<svg xmlns="http://www.w3.org/2000/svg" xmlns:xlink="http://www.w3.org/1999/xlink" version="1.1" x="0px" y="0px" viewBox="0 0 100 100" enable-background="new 0 0 100 100" style="fill: rgba(128,100,177,1);"  xml:space="preserve"><g><path d="M92.475,18.308l-2.869-8.676l-6.407-4.563L70.92,12.955l-0.049-0.079l-7.224-3.309L50,7.024v1.697l12.875,2.869   l6.578,3.358L83.78,37.895l4.654,12.83l-5.34,19.302l-15.053,8.891l-4.454,1.558l3.281-8.75v-5.929l5.873,0.095l4.407-4.06   l0.278-8.71l-2.868-2.835l-6.087-8.327l-6.795,2.514l-1.092,0.539l-0.709,9.33l-4.193-1.569l-5.682-0.439l0,0H50h-0.004l0,0   L44.7,52.806l-4.577,1.558l-0.71-9.352l-1.092-0.539l-6.795-2.514l-6.088,8.327l-2.868,2.835l0.28,8.71l4.409,4.06l5.871-0.095   v5.929l3.282,8.75l-4.453-1.558l-15.054-8.891l-5.34-19.302l4.655-12.83l14.327-22.945l6.577-3.358l12.876-2.869V7.024   L36.352,9.567l-7.226,3.309l-0.048,0.079L17.589,5.069l-7.196,4.563l-2.868,8.676l1.4,9.867l5.802,8.484L9.449,50.181l4.794,21.519   l35.664,23.112v0.119L50,94.87l0.092,0.061v-0.119l35.665-23.112l4.793-21.519l-5.279-13.521l5.804-8.484L92.475,18.308z    M50,86.662l-5.942-1.35l-5.723-5.983l3.933,1.816l5.36-0.243l2.372-1.403v-3.508v-5.306l-5.263,0.033l-2.855,0.647l-2.518-2.31   l2.518,5.354l7.515,1.466v1.997l-7.165,1.768l-4.131-0.558l-0.061-0.063l-3.086-7.602l-0.21-5.197l5.162-10.24l4.756-2.347   l5.337-0.769L50,52.802v0.064l5.724,0.735l4.368,2.38l5.162,10.24l-0.21,5.197l-3.086,7.602l-0.061,0.063l-4.131,0.558   l-7.164-1.768v-1.997l7.514-1.466l2.52-5.354l-2.52,2.31l-2.854-0.647L50,70.686v5.306v3.508l2.37,1.403l5.361,0.243l3.932-1.816   l-5.722,5.983L50,86.662z"/></g></svg>
